<?xml version="1.0" encoding="UTF-8" standalone="no"?>
<!-- Created with Inkscape (http://www.inkscape.org/) -->

<svg
   xmlns:dc="http://purl.org/dc/elements/1.1/"
   xmlns:cc="http://creativecommons.org/ns#"
   xmlns:rdf="http://www.w3.org/1999/02/22-rdf-syntax-ns#"
   xmlns:svg="http://www.w3.org/2000/svg"
   xmlns="http://www.w3.org/2000/svg"
   xmlns:sodipodi="http://sodipodi.sourceforge.net/DTD/sodipodi-0.dtd"
   xmlns:inkscape="http://www.inkscape.org/namespaces/inkscape"
   width="291.30624mm"
   height="185.07428mm"
   viewBox="0 0 1032.1875 655.775"
   id="svg2"
   version="1.1"
   inkscape:version="0.91 r13725"
   sodipodi:docname="AsymmetricJoined.svg">
  <defs
     id="defs4" />
  <sodipodi:namedview
     id="base"
     pagecolor="#ffffff"
     bordercolor="#666666"
     borderopacity="1.0"
     inkscape:pageopacity="0.0"
     inkscape:pageshadow="2"
     inkscape:zoom="0.49821586"
     inkscape:cx="964.84276"
     inkscape:cy="220.12126"
     inkscape:document-units="px"
     inkscape:current-layer="g4237"
     showgrid="false"
     inkscape:snap-center="true"
     inkscape:window-width="1534"
     inkscape:window-height="868"
     inkscape:window-x="1600"
     inkscape:window-y="0"
     inkscape:window-maximized="1"
     fit-margin-left="5"
     fit-margin-top="5"
     fit-margin-right="5"
     fit-margin-bottom="5" />
  <metadata
     id="metadata7">
    <rdf:RDF>
      <cc:Work
         rdf:about="">
        <dc:format>image/svg+xml</dc:format>
        <dc:type
           rdf:resource="http://purl.org/dc/dcmitype/StillImage" />
        <dc:title></dc:title>
      </cc:Work>
    </rdf:RDF>
  </metadata>
  <g
     inkscape:label="Layer 1"
     inkscape:groupmode="layer"
     id="layer1"
     transform="translate(444.62553,-179.71913)">
    <path
       style="color:#000000;clip-rule:nonzero;display:inline;overflow:visible;visibility:visible;opacity:1;isolation:auto;mix-blend-mode:normal;color-interpolation:sRGB;color-interpolation-filters:linearRGB;solid-color:#000000;solid-opacity:1;fill:none;fill-opacity:1;fill-rule:nonzero;stroke:#ff0000;stroke-width:1;stroke-linecap:butt;stroke-linejoin:miter;stroke-miterlimit:4;stroke-dasharray:none;stroke-dashoffset:0;stroke-opacity:1;color-rendering:auto;image-rendering:auto;shape-rendering:auto;text-rendering:auto;enable-background:accumulate"
       d="M 327.88672 18.216797 A 309.67096 309.67096 0 0 0 18.216797 327.88672 A 309.67096 309.67096 0 0 0 327.88672 637.55859 A 309.67096 309.67096 0 0 0 586.44727 497.88672 A 247.52454 247.52454 0 0 0 766.44727 575.73242 A 247.52454 247.52454 0 0 0 1013.9707 328.20703 A 247.52454 247.52454 0 0 0 766.44727 80.683594 A 247.52454 247.52454 0 0 0 586.85156 158.3125 A 309.67096 309.67096 0 0 0 327.88672 18.216797 z "
       transform="translate(-444.62553,179.71913)"
       id="path4322" />
    <g
       id="g4229"
       inkscape:transform-center-x="-21.514942"
       inkscape:transform-center-y="0.52521325"
       transform="matrix(0.30901699,0.95105652,-0.95105652,0.30901699,402.09859,461.77202)">
      <animateTransform
         attributeName="transform"
         attributeType="XML"
         type="rotate"
         from="360 -116.73804 507.60663"
         to="0 -116.73804 507.60663"
         dur="10s"
         repeatCount="indefinite" />
      <path
         id="use4187"
         style="fill:none;fill-rule:evenodd;stroke:#ff0000;stroke-width:1px;stroke-linecap:butt;stroke-linejoin:miter;stroke-opacity:1"
         d="m -351.30042,697.96087 c -4.21083,-1.25836 -8.73166,-4.7301 -10.73513,-7.65432 -46.52843,-67.91225 7.0923,-151.34739 39.10702,-176.02616 4.4976,-3.46701 11.12706,-15.60157 11.81323,-19.93997 1.60859,-10.17056 3.46903,-25.88021 3.74529,-28.47699 0.57681,-5.42205 -1.57241,-5.489 -4.15829,-6.63966 -29.90344,-13.30635 -57.48764,-63.56809 -58.73114,-115.87653 -0.10445,-4.3936 1.80036,-9.76599 3.96236,-12.57503 50.21031,-65.23721 146.13155,-40.02375 179.49555,-17.20209 4.68716,3.2061 18.27643,5.76131 22.61454,5.07325 10.16985,-1.61301 25.68552,-4.69817 28.24058,-5.23789 5.33491,-1.12692 4.73444,-3.19164 5.0297,-6.00653 3.41441,-32.55174 42.692189,-74.31761 92.056209,-91.66445 4.146287,-1.45703 9.844347,-1.30561 13.184003,-0.11747 77.560111,27.59344 83.221975,126.61135 71.827337,165.39468 -1.600779,5.44849 0.168396,19.16226 2.163321,23.07542 4.676724,9.17366 12.405493,22.97657 13.708349,25.23979 2.720349,4.72557 4.498459,3.51645 7.266819,2.92741 32.013652,-6.81175 83.872862,17.63728 115.625002,59.22478 2.66699,3.49311 4.28378,8.95908 4.1858,12.50243 -2.27553,82.2909 -94.697542,118.27386 -135.103818,119.42163 -5.676489,0.16124 -18.172355,6.08162 -21.277525,9.18814 -7.279482,7.28264 -18.018509,18.89847 -19.768354,20.83693 -3.6536505,4.04749 -1.954242,5.36494 -0.538562,7.81578 16.371118,28.34186 9.144089,85.21805 -20.5960255,128.26738 -2.4979955,3.61589 -7.1968255,6.84263 -10.5970355,7.8444 -78.966464,23.26513 -141.74828,-53.51408 -155.32609,-91.58805 -1.90748,-5.34884 -11.39953,-15.40362 -15.31355,-17.39684 -9.1757,-4.67274 -23.54155,-11.29667 -25.92587,-12.36186 -4.97843,-2.22408 -5.70624,-0.20074 -7.59967,1.90301 -21.89575,24.32797 -78.2215,35.03037 -128.35405,20.04881 z"
         inkscape:connector-curvature="0"
         sodipodi:nodetypes="sssssssssssssssssssssssssssssss" />
    </g>
    <g
       id="g4237"
       inkscape:transform-center-y="-1.5931399e-05">
      <animateTransform
         attributeName="transform"
         attributeType="XML"
         type="rotate"
         from="0 321.82086 507.92651"
         to="360 321.82086 507.92651"
         dur="12s"
         repeatCount="indefinite" />
      <path
         id="use4222"
         style="fill:none;fill-rule:evenodd;stroke:#ff00ff;stroke-width:1px;stroke-linecap:butt;stroke-linejoin:miter;stroke-opacity:1"
         d="m 362.37799,748.62308 c -6.47821,1.01545 -15.74744,2.41038 -23.76335,2.55983 -18.28017,0.34081 -29.27198,-18.41888 -30.98403,-30.64175 -3.76985,-26.91421 -14.79645,-71.40847 -42.1415,-92.2347 -28.43133,-21.65355 -76.29801,-25.08447 -117.75167,33.20318 -4.4941,6.31912 -8.56788,8.72696 -14.08738,1.88867 -4.11851,-5.10257 -9.96117,-12.4325 -14.09855,-19.29975 -9.43524,-15.66069 1.31523,-34.55972 11.04452,-42.15384 21.42346,-16.72189 54.44332,-48.51833 58.80684,-82.61296 4.53686,-35.44902 -16.42521,-78.61825 -87.63063,-85.37434 -7.719542,-0.73244 -11.841695,-3.05652 -8.679307,-11.25569 2.3597,-6.11802 5.78627,-14.84288 9.664797,-21.85958 8.84494,-16.0015 30.58721,-16.14084 42.02855,-11.51209 25.19331,10.19232 69.23977,22.89014 100.94834,9.62174 32.96819,-13.79547 59.87279,-53.53377 30.12104,-118.57752 -3.22546,-7.05155 -3.27382,-11.78348 5.40807,-13.14436 6.47821,-1.01545 15.74744,-2.41038 23.76335,-2.55983 18.28017,-0.34081 29.27198,18.41888 30.98403,30.64175 3.76985,26.91421 14.79645,71.40847 42.1415,92.2347 28.43133,21.65355 76.298,25.08447 117.75167,-33.20318 4.49409,-6.3191 8.56788,-8.72695 14.08739,-1.88865 4.11851,5.10257 9.96117,12.43249 14.09855,19.29975 9.43523,15.66069 -1.31523,34.55972 -11.04452,42.15383 -21.42346,16.72189 -54.44332,48.51834 -58.80684,82.61296 -4.53686,35.44903 16.42521,78.61825 87.63062,85.37435 7.71955,0.73245 11.8417,3.05653 8.67932,11.2557 -2.3597,6.11802 -5.78627,14.84288 -9.6648,21.85958 -8.84494,16.0015 -30.58721,16.14084 -42.02855,11.51209 -25.19331,-10.19232 -69.23977,-22.89014 -100.94834,-9.62174 -32.96819,13.79547 -59.87279,53.53377 -30.12105,118.5775 3.22546,7.05154 3.27382,11.78347 -5.40807,13.14435 z"
         inkscape:connector-curvature="0"
         sodipodi:nodetypes="sssssssssssssssssssssssssssssss" />
    </g>
  </g>
</svg>
