<?xml version="1.0" encoding="UTF-8" standalone="no"?>
<!-- Created with Inkscape (http://www.inkscape.org/) -->

<svg
   xmlns:dc="http://purl.org/dc/elements/1.1/"
   xmlns:cc="http://creativecommons.org/ns#"
   xmlns:rdf="http://www.w3.org/1999/02/22-rdf-syntax-ns#"
   xmlns:svg="http://www.w3.org/2000/svg"
   xmlns="http://www.w3.org/2000/svg"
   xmlns:xlink="http://www.w3.org/1999/xlink"
   xmlns:sodipodi="http://sodipodi.sourceforge.net/DTD/sodipodi-0.dtd"
   xmlns:inkscape="http://www.inkscape.org/namespaces/inkscape"
   width="210mm"
   height="297mm"
   viewBox="0 0 744.09448819 1052.3622047"
   id="svg2"
   version="1.1"
   inkscape:version="0.91 r13725"
   sodipodi:docname="Asymmetric.svg">
  <defs
     id="defs4" />
  <sodipodi:namedview
     id="base"
     pagecolor="#ffffff"
     bordercolor="#666666"
     borderopacity="1.0"
     inkscape:pageopacity="0.0"
     inkscape:pageshadow="2"
     inkscape:zoom="0.6933785"
     inkscape:cx="20.225399"
     inkscape:cy="571.87636"
     inkscape:document-units="px"
     inkscape:current-layer="layer1"
     showgrid="false"
     inkscape:snap-center="true"
     inkscape:window-width="1534"
     inkscape:window-height="868"
     inkscape:window-x="1600"
     inkscape:window-y="0"
     inkscape:window-maximized="0" />
  <metadata
     id="metadata7">
    <rdf:RDF>
      <cc:Work
         rdf:about="">
        <dc:format>image/svg+xml</dc:format>
        <dc:type
           rdf:resource="http://purl.org/dc/dcmitype/StillImage" />
        <dc:title></dc:title>
      </cc:Work>
    </rdf:RDF>
  </metadata>
  <g
     inkscape:label="Layer 1"
     inkscape:groupmode="layer"
     id="layer1">
    <image
       sodipodi:absref="/home/david/Pictures/Roots/Untitled.png"
       xlink:href="Untitled.png"
       width="1039.1753"
       height="646.875"
       preserveAspectRatio="none"
       id="image4317"
       x="-465.30194"
       y="177.49614" />
    <circle
       style="color:#000000;clip-rule:nonzero;display:inline;overflow:visible;visibility:visible;opacity:1;isolation:auto;mix-blend-mode:normal;color-interpolation:sRGB;color-interpolation-filters:linearRGB;solid-color:#000000;solid-opacity:1;fill:none;fill-opacity:1;fill-rule:nonzero;stroke:#ff0000;stroke-width:1;stroke-linecap:butt;stroke-linejoin:miter;stroke-miterlimit:4;stroke-dasharray:none;stroke-dashoffset:0;stroke-opacity:1;color-rendering:auto;image-rendering:auto;shape-rendering:auto;text-rendering:auto;enable-background:accumulate"
       id="path4322"
       cx="-116.73804"
       cy="507.60663"
       r="200.49773" />
    <path
       id="path4320-3-6-7"
       style="fill:none;fill-rule:evenodd;stroke:#ff0000;stroke-width:1px;stroke-linecap:butt;stroke-linejoin:miter;stroke-opacity:1"
       d="m 69.289328,432.25433 c 32.013652,-6.81174 85.872862,17.63729 117.625002,59.22479 2.66699,3.49311 4.28378,8.95907 4.1858,12.50244 -2.27553,82.29089 -96.697529,118.27385 -137.103806,119.42161 -5.67649,0.16125 -18.696118,5.63442 -21.277525,9.18814 -2.953395,4.06582 -9.364263,13.69924 -20.013253,21.41409 -2.9470767,2.13505 -1.709357,4.78778 -0.293676,7.23862 16.371113,28.34185 9.762114,87.12017 -19.9779976,130.16949 -2.4979994,3.61589 -7.1968214,6.84262 -10.5970434,7.8444 -78.966455,23.26512 -142.366289,-55.41619 -155.944099,-93.49016 -1.90749,-5.34884 -11.39953,-15.40361 -15.31356,-17.39684 -9.17569,-4.67273 -15.86714,-6.87488 -25.94493,-12.35267 -3.47648,-1.88964 -5.68718,-0.20994 -7.5806,1.89383 -21.89574,24.32796 -79.83954,36.20593 -129.97208,21.22438 -4.21084,-1.25837 -8.73166,-4.7301 -10.73513,-7.65434 -46.52843,-67.91224 8.71032,-152.52293 40.72505,-177.2017 4.4976,-3.46701 11.81365,-15.54764 11.81323,-19.93997 -4.8e-4,-5.02529 -0.47637,-16.5871 3.60417,-29.08786 1.12929,-3.45954 -1.43129,-4.87813 -4.01716,-6.02879 -29.90343,-13.30634 -59.10567,-64.74367 -60.34917,-117.0521 -0.10444,-4.3936 1.80036,-9.76598 3.96236,-12.57504 50.21032,-65.2372 147.74957,-38.84816 181.11357,-16.02651 4.68716,3.20611 18.27643,5.76131 22.61454,5.07325 10.16985,-1.61301 25.71952,-4.74123 28.26803,-5.25811 4.45229,-0.903 4.70698,-3.17144 5.00224,-5.98633 3.41441,-32.55174 43.310223,-76.21972 92.674243,-93.56656 4.146287,-1.45703 9.844347,-1.30561 13.184003,-0.11747 77.560111,27.59344 82.603941,128.51346 71.209303,167.29679 -1.600779,5.44849 0.168396,19.16226 2.163321,23.07542 4.676724,9.17366 12.405493,22.97657 13.708349,25.23979 2.720349,4.72557 4.498459,3.51645 7.266819,2.92741 z"
       inkscape:connector-curvature="0"
       sodipodi:nodetypes="sssssssssssssssssssssssssssssss" />
  </g>
</svg>
