<?xml version="1.0" encoding="UTF-8" standalone="no"?>
<!-- Created with Inkscape (http://www.inkscape.org/) -->

<svg
   xmlns:dc="http://purl.org/dc/elements/1.1/"
   xmlns:cc="http://creativecommons.org/ns#"
   xmlns:rdf="http://www.w3.org/1999/02/22-rdf-syntax-ns#"
   xmlns:svg="http://www.w3.org/2000/svg"
   xmlns="http://www.w3.org/2000/svg"
   xmlns:sodipodi="http://sodipodi.sourceforge.net/DTD/sodipodi-0.dtd"
   xmlns:inkscape="http://www.inkscape.org/namespaces/inkscape"
   width="210mm"
   height="297mm"
   viewBox="0 0 744.09448819 1052.3622047"
   id="svg2"
   version="1.1"
   inkscape:version="0.91 r13725"
   sodipodi:docname="Asymmetric.svg">
  <defs
     id="defs4" />
  <sodipodi:namedview
     id="base"
     pagecolor="#ffffff"
     bordercolor="#666666"
     borderopacity="1.0"
     inkscape:pageopacity="0.0"
     inkscape:pageshadow="2"
     inkscape:zoom="0.4987232"
     inkscape:cx="404.51318"
     inkscape:cy="630.71781"
     inkscape:document-units="px"
     inkscape:current-layer="layer1"
     showgrid="false"
     inkscape:snap-center="true"
     inkscape:window-width="1534"
     inkscape:window-height="868"
     inkscape:window-x="1600"
     inkscape:window-y="0"
     inkscape:window-maximized="0" />
  <metadata
     id="metadata7">
    <rdf:RDF>
      <cc:Work
         rdf:about="">
        <dc:format>image/svg+xml</dc:format>
        <dc:type
           rdf:resource="http://purl.org/dc/dcmitype/StillImage" />
        <dc:title></dc:title>
      </cc:Work>
    </rdf:RDF>
  </metadata>
  <g
     inkscape:label="Layer 1"
     inkscape:groupmode="layer"
     id="layer1">
    <circle
       style="color:#000000;clip-rule:nonzero;display:inline;overflow:visible;visibility:visible;opacity:1;isolation:auto;mix-blend-mode:normal;color-interpolation:sRGB;color-interpolation-filters:linearRGB;solid-color:#000000;solid-opacity:1;fill:none;fill-opacity:1;fill-rule:nonzero;stroke:#ff0000;stroke-width:1;stroke-linecap:butt;stroke-linejoin:miter;stroke-miterlimit:4;stroke-dasharray:none;stroke-dashoffset:0;stroke-opacity:1;color-rendering:auto;image-rendering:auto;shape-rendering:auto;text-rendering:auto;enable-background:accumulate"
       id="path4322"
       cx="-116.73804"
       cy="507.60663"
       r="309.67096" />
    <path
       id="path4320-3-6-7"
       style="fill:none;fill-rule:evenodd;stroke:#ff0000;stroke-width:1px;stroke-linecap:butt;stroke-linejoin:miter;stroke-opacity:1"
       d="m 69.289328,432.25433 c 32.013652,-6.81174 85.872862,17.63729 117.625002,59.22479 2.66699,3.49311 4.28378,8.95907 4.1858,12.50244 -2.27553,82.29089 -96.697529,118.27385 -137.103806,119.42161 -5.67649,0.16125 -18.696118,5.63442 -21.277525,9.18814 -2.953395,4.06582 -9.364263,13.69924 -20.013253,21.41409 -2.9470767,2.13505 -1.709357,4.78778 -0.293676,7.23862 16.371113,28.34185 9.762114,87.12017 -19.9779976,130.16949 -2.4979994,3.61589 -7.1968214,6.84262 -10.5970434,7.8444 -78.966455,23.26512 -142.366289,-55.41619 -155.944099,-93.49016 -1.90749,-5.34884 -11.39953,-15.40361 -15.31356,-17.39684 -9.17569,-4.67273 -15.86714,-6.87488 -25.94493,-12.35267 -3.47648,-1.88964 -5.68718,-0.20994 -7.5806,1.89383 -21.89574,24.32796 -79.83954,36.20593 -129.97208,21.22438 -4.21084,-1.25837 -8.73166,-4.7301 -10.73513,-7.65434 -46.52843,-67.91224 8.71032,-152.52293 40.72505,-177.2017 4.4976,-3.46701 11.81365,-15.54764 11.81323,-19.93997 -4.8e-4,-5.02529 -0.47637,-16.5871 3.60417,-29.08786 1.12929,-3.45954 -1.43129,-4.87813 -4.01716,-6.02879 -29.90343,-13.30634 -59.10567,-64.74367 -60.34917,-117.0521 -0.10444,-4.3936 1.80036,-9.76598 3.96236,-12.57504 50.21032,-65.2372 147.74957,-38.84816 181.11357,-16.02651 4.68716,3.20611 18.27643,5.76131 22.61454,5.07325 10.16985,-1.61301 25.71952,-4.74123 28.26803,-5.25811 4.45229,-0.903 4.70698,-3.17144 5.00224,-5.98633 3.41441,-32.55174 43.310223,-76.21972 92.674243,-93.56656 4.146287,-1.45703 9.844347,-1.30561 13.184003,-0.11747 77.560111,27.59344 82.603941,128.51346 71.209303,167.29679 -1.600779,5.44849 0.168396,19.16226 2.163321,23.07542 4.676724,9.17366 12.405493,22.97657 13.708349,25.23979 2.720349,4.72557 4.498459,3.51645 7.266819,2.92741 z"
       inkscape:connector-curvature="0"
       sodipodi:nodetypes="sssssssssssssssssssssssssssssss"
       inkscape:transform-center-x="-21.514948"
       inkscape:transform-center-y="0.52521766" />
    <circle
       style="color:#000000;clip-rule:nonzero;display:inline;overflow:visible;visibility:visible;opacity:1;isolation:auto;mix-blend-mode:normal;color-interpolation:sRGB;color-interpolation-filters:linearRGB;solid-color:#000000;solid-opacity:1;fill:none;fill-opacity:1;fill-rule:nonzero;stroke:#ff00ff;stroke-width:1;stroke-linecap:butt;stroke-linejoin:miter;stroke-miterlimit:4;stroke-dasharray:none;stroke-dashoffset:0;stroke-opacity:1;color-rendering:auto;image-rendering:auto;shape-rendering:auto;text-rendering:auto;enable-background:accumulate"
       id="path4393"
       cx="321.82086"
       cy="507.92651"
       r="247.52454" />
    <path
       id="use4410-5"
       style="fill:none;fill-rule:evenodd;stroke:#ff00ff;stroke-width:1px;stroke-linecap:butt;stroke-linejoin:miter;stroke-opacity:1"
       d="m 338.61465,751.18293 c -18.28017,0.34081 -29.27198,-18.41887 -30.98402,-30.64175 -3.76985,-26.91421 -14.79646,-71.40847 -42.14151,-92.2347 -28.43133,-21.65355 -76.298,-25.08447 -117.75167,33.20318 -4.49409,6.3191 -8.56788,8.72695 -14.08738,1.88865 -4.11851,-5.10257 -9.96117,-12.43249 -14.09856,-19.29975 -9.43523,-15.66068 1.31523,-34.55972 11.04452,-42.15383 21.42347,-16.72189 54.44333,-48.51834 58.80685,-82.61296 4.53685,-35.44903 -16.42522,-78.61824 -87.63064,-85.37435 -7.719543,-0.73244 -11.698819,-3.00284 -8.67931,-11.2557 1.665726,-4.55273 5.78627,-14.84286 9.6648,-21.85957 8.84493,-16.0015 30.5872,-16.14084 42.02854,-11.51208 25.19332,10.19232 69.23978,22.89013 100.94835,9.62174 32.96819,-13.79548 59.87279,-53.53377 30.12104,-118.57753 -3.22546,-7.05155 -3.27382,-11.78348 5.40807,-13.14436 6.47821,-1.01545 15.74744,-2.41038 23.76335,-2.55983 18.28017,-0.34081 29.27198,18.41888 30.98403,30.64175 3.76985,26.91421 14.79645,71.40847 42.1415,92.2347 28.43133,21.65355 76.298,25.08447 117.75167,-33.20318 4.49409,-6.3191 8.61929,-8.76812 14.08738,-1.88866 2.91118,3.6626 9.96116,12.43249 14.09854,19.29975 9.43524,15.66069 -1.31522,34.55972 -11.04451,42.15383 -21.42347,16.72189 -54.44333,48.51834 -58.80685,82.61296 -4.53686,35.44903 16.42521,78.61824 87.63064,85.37435 7.71955,0.73245 11.8417,3.05653 8.67931,11.25571 -2.3597,6.11802 -5.78627,14.84287 -9.6648,21.85958 -8.84493,16.0015 -30.58721,16.14084 -42.02855,11.51208 -25.19331,-10.19232 -69.23977,-22.89013 -100.94834,-9.62174 -32.96819,13.79548 -59.87279,53.53377 -30.12104,118.57753 3.22546,7.05154 3.2099,11.82593 -5.40806,13.14435 -4.68332,0.71648 -15.74743,2.41038 -23.76335,2.55983 z"
       inkscape:connector-curvature="0"
       sodipodi:nodetypes="sssssssssssssssssssssssssssssss"
       inkscape:transform-center-x="-0.029181943" />
  </g>
</svg>
