<?xml version="1.0" encoding="UTF-8" standalone="no"?>
<svg
   xmlns:dc="http://purl.org/dc/elements/1.1/"
   xmlns:cc="http://creativecommons.org/ns#"
   xmlns:rdf="http://www.w3.org/1999/02/22-rdf-syntax-ns#"
   xmlns:svg="http://www.w3.org/2000/svg"
   xmlns="http://www.w3.org/2000/svg"
   version="1.1"
   id="svg2"
   height="250"
   width="250">
  <defs
     id="defs4" />
  <metadata
     id="metadata7">
    <rdf:RDF>
      <cc:Work
         rdf:about="">
        <dc:format>image/svg+xml</dc:format>
        <dc:type
           rdf:resource="http://purl.org/dc/dcmitype/StillImage" />
        <dc:title></dc:title>
      </cc:Work>
    </rdf:RDF>
  </metadata>
  <g
     transform="translate(0,-802.36218)"
     id="layer1">
    <g
       transform="matrix(1.4367532,0,0,1.4367532,2.3389791,-459.71804)"
       id="g3660">
      <path
         d="m 116.22314,944.22533 c 1.99426,-6.28536 4.7803,-12.55091 8.12145,-16.21368 0.76085,-0.83408 1.55931,-2.75954 1.89178,-4.37277 0.38202,-1.85384 0.45502,-3.68567 0.45502,-4.3874 0,-10.96404 -7.39039,-21.07591 -15.36997,-26.70428 -7.36672,-5.19608 -16.348644,-8.18604 -25.94635,-8.18604 -9.597706,0 -18.579632,2.98996 -25.946352,8.18604 -7.979585,5.62837 -15.369977,15.74024 -15.369977,26.70428 0,0.70173 0.07296,2.53356 0.455021,4.3874 0.332476,1.61323 1.130936,3.53869 1.891785,4.37277 3.341151,3.66277 6.127185,9.92832 8.121449,16.21368 2.359694,7.43708 3.291729,16.40187 3.291729,22.76576 0,6.36388 -0.932035,15.32868 -3.291729,22.76576 -1.994264,6.28536 -4.780298,12.55085 -8.121449,16.21365 -0.760849,0.8341 -1.559309,2.7596 -1.891785,4.3728 -0.382061,1.8538 -0.455021,3.6857 -0.455021,4.3874 0,10.964 7.390392,21.0759 15.369977,26.7043 7.36672,5.196 16.348646,8.186 25.946352,8.186 9.597706,0 18.57963,-2.99 25.94635,-8.186 7.97958,-5.6284 15.36997,-15.7403 15.36997,-26.7043 0,-0.7017 -0.073,-2.5336 -0.45502,-4.3874 -0.33247,-1.6132 -1.13093,-3.5387 -1.89178,-4.3728 -3.34115,-3.6628 -6.12719,-9.92829 -8.12145,-16.21365 -2.35969,-7.43708 -3.32033,-16.40188 -3.32033,-22.76576 0,-6.36388 0.96064,-15.32868 3.32033,-22.76576 z"
         style="fill:none;fill-rule:evenodd;stroke:#000000;stroke-width:1.25282478;stroke-linecap:butt;stroke-linejoin:miter;stroke-miterlimit:4;stroke-dasharray:none;stroke-opacity:1"
         id="path4366-6-5-3" />
      <path
         d="m 219.55478,997.8392 c 6.28536,1.99426 12.55091,4.7803 16.21368,8.1215 0.83408,0.7608 2.75954,1.5593 4.37277,1.8917 1.85384,0.3821 3.68567,0.4551 4.3874,0.4551 10.96404,0 21.07591,-7.3904 26.70428,-15.37002 5.19608,-7.36672 8.18604,-16.34864 8.18604,-25.94635 0,-9.59771 -2.98996,-18.57963 -8.18604,-25.94635 -5.62837,-7.97958 -15.74024,-15.36997 -26.70428,-15.36997 -0.70173,0 -2.53356,0.073 -4.3874,0.45502 -1.61323,0.33247 -3.53869,1.13093 -4.37277,1.89178 -3.66277,3.34115 -9.92832,6.12718 -16.21368,8.12145 -7.43708,2.35969 -16.40188,3.29172 -22.76577,3.29172 -6.36387,0 -15.32868,-0.93203 -22.76575,-3.29172 -6.28537,-1.99427 -12.55086,-4.7803 -16.21376,-8.12145 -0.8341,-0.76085 -2.7596,-1.55931 -4.3728,-1.89178 -1.8538,-0.38206 -3.6857,-0.45502 -4.3874,-0.45502 -10.964,0 -21.0759,7.39039 -26.7043,15.36997 -5.196,7.36672 -8.186,16.34864 -8.186,25.94635 0,9.59771 2.99,18.57963 8.186,25.94635 5.6284,7.97962 15.7403,15.37002 26.7043,15.37002 0.7017,0 2.5336,-0.073 4.3874,-0.4551 1.6132,-0.3324 3.5387,-1.1309 4.3728,-1.8917 3.6629,-3.3412 9.92839,-6.12724 16.21376,-8.1215 7.43707,-2.35969 16.40188,-3.32033 22.76575,-3.32033 6.36389,0 15.32869,0.96064 22.76577,3.32033 z"
         style="fill:none;fill-rule:evenodd;stroke:#000000;stroke-width:1.25282478;stroke-linecap:butt;stroke-linejoin:miter;stroke-miterlimit:4;stroke-dasharray:none;stroke-opacity:1"
         id="path4366-6-5-3-5" />
      <circle
         r="83.958466"
         cy="966.99115"
         cx="196.78897"
         id="path4446"
         style="opacity:1;fill:none;fill-opacity:1;fill-rule:nonzero;stroke:#ff0000;stroke-width:1.25282478;stroke-miterlimit:4;stroke-dasharray:none;stroke-dashoffset:0;stroke-opacity:1" />
      <circle
         r="83.958458"
         cy="966.99109"
         cx="85.375069"
         id="path4446-6"
         style="opacity:1;fill:none;fill-opacity:1;fill-rule:nonzero;stroke:#ff0000;stroke-width:1.25282478;stroke-miterlimit:4;stroke-dasharray:none;stroke-dashoffset:0;stroke-opacity:1" />
    </g>
  </g>
</svg>
