<?xml version="1.0" encoding="UTF-8" standalone="no"?>
<!-- Created with Inkscape (http://www.inkscape.org/) -->

<svg
   xmlns:dc="http://purl.org/dc/elements/1.1/"
   xmlns:cc="http://creativecommons.org/ns#"
   xmlns:rdf="http://www.w3.org/1999/02/22-rdf-syntax-ns#"
   xmlns:svg="http://www.w3.org/2000/svg"
   xmlns="http://www.w3.org/2000/svg"
   xmlns:sodipodi="http://sodipodi.sourceforge.net/DTD/sodipodi-0.dtd"
   xmlns:inkscape="http://www.inkscape.org/namespaces/inkscape"
   width="357.02594"
   height="413.12811"
   id="svg2"
   version="1.1"
   inkscape:version="0.91 r13725"
   sodipodi:docname="Cycloidal_rotor_construction_-_2_lobes.svg">
  <sodipodi:namedview
     id="base"
     pagecolor="#ffffff"
     bordercolor="#666666"
     borderopacity="1.0"
     inkscape:pageopacity="0.0"
     inkscape:pageshadow="2"
     inkscape:zoom="0.70710678"
     inkscape:cx="-59.005899"
     inkscape:cy="103.27752"
     inkscape:document-units="px"
     inkscape:current-layer="svg2"
     showgrid="true"
     inkscape:window-width="1598"
     inkscape:window-height="868"
     inkscape:window-x="0"
     inkscape:window-y="0"
     inkscape:window-maximized="1"
     inkscape:snap-bbox="true"
     inkscape:snap-global="true"
     inkscape:snap-center="true"
     inkscape:snap-grids="false"
     inkscape:snap-bbox-midpoints="true"
     fit-margin-left="5"
     fit-margin-top="5"
     fit-margin-right="5"
     fit-margin-bottom="5" />
  <defs
     id="defs4" />
  <metadata
     id="metadata7">
    <rdf:RDF>
      <cc:Work
         rdf:about="">
        <dc:format>image/svg+xml</dc:format>
        <dc:type
           rdf:resource="http://purl.org/dc/dcmitype/StillImage" />
        <dc:title></dc:title>
      </cc:Work>
    </rdf:RDF>
  </metadata>
  <g
     inkscape:label="Layer 1"
     inkscape:groupmode="layer"
     id="layer1"
     transform="translate(-26.526095,-723.0452)">
    <path
       sodipodi:nodetypes="sscsssssssscsssssssscsscs"
       inkscape:connector-curvature="0"
       d="m 172.33052,965.32537 c -9.03051,-2.86526 -18.03256,-6.86811 -23.29505,-11.66852 -1.19837,-1.09315 -3.96478,-2.24034 -6.28259,-2.71802 -2.66351,-0.54887 -5.2954,-0.65375 -6.30361,-0.65375 -15.75262,0 -30.28089,10.61817 -38.36746,22.08285 -7.46549,10.58416 -11.76132,23.48897 -11.76132,37.27847 0,13.7896 4.29583,26.6944 11.76132,37.2785 8.08657,11.4647 22.61484,22.0829 38.36746,22.0829 1.00821,0 3.6401,-0.1048 6.30361,-0.6537 2.31781,-0.4777 5.08422,-1.6249 6.28259,-2.7181 5.26249,-4.8004 14.26454,-8.8032 23.29505,-11.6685 10.68525,-3.3903 23.56544,-4.7294 32.70878,-4.7294 9.14333,0 22.02353,1.3391 32.70878,4.7294 9.03051,2.8653 18.03248,6.8681 23.29501,11.6685 1.1984,1.0932 3.96487,2.2404 6.28264,2.7181 2.66345,0.5489 5.29544,0.6537 6.30361,0.6537 15.75256,0 30.28086,-10.6182 38.36746,-22.0829 7.4654,-10.5841 11.7613,-23.4889 11.7613,-37.2785 0,-13.7895 -4.2959,-26.69431 -11.7613,-37.27847 -8.0866,-11.46468 -22.6149,-22.08285 -38.36746,-22.08285 -1.00817,0 -3.64016,0.10488 -6.30361,0.65375 -2.31777,0.47768 -5.08424,1.62487 -6.28264,2.71802 -5.26253,4.80041 -14.2645,8.80326 -23.29501,11.66852 -10.68525,3.39029 -23.56545,4.7705 -32.70878,4.7705 -9.14332,0 -22.02353,-1.38021 -32.70878,-4.7705 z"
       style="fill:none;fill-rule:evenodd;stroke:#000000;stroke-width:1.80000007;stroke-linecap:butt;stroke-linejoin:miter;stroke-miterlimit:4;stroke-dasharray:none;stroke-opacity:1"
       id="RotorLeft" />
    <path
       sodipodi:nodetypes="sscsssssssscsssssssscsscs"
       inkscape:connector-curvature="0"
       d="m 249.36042,816.86331 c 2.86526,-9.03051 6.86812,-18.03256 11.66859,-23.29506 1.09309,-1.19837 2.24033,-3.96478 2.71791,-6.28259 0.54898,-2.66351 0.65387,-5.2954 0.65387,-6.30361 0,-15.75262 -10.61818,-30.28088 -22.08293,-38.36746 -10.58416,-7.46549 -23.48896,-11.76132 -37.2785,-11.76132 -13.78954,0 -26.69434,4.29583 -37.2785,11.76132 -11.46469,8.08658 -22.08285,22.61484 -22.08285,38.36746 0,1.00821 0.10488,3.6401 0.65375,6.30361 0.47767,2.31781 1.62486,5.08422 2.71802,6.28259 4.80041,5.2625 8.80324,14.26455 11.66852,23.29506 3.39029,10.68525 4.72939,23.56545 4.72939,32.70879 0,9.14331 -1.3391,22.02353 -4.72939,32.70877 -2.86528,9.03052 -6.86811,18.03248 -11.66852,23.29517 -1.09316,1.19839 -2.24035,3.96486 -2.71802,6.28263 -0.54893,2.66345 -0.65375,5.29544 -0.65375,6.30361 0,15.75256 10.61816,30.28087 22.08285,38.36749 10.58416,7.46537 23.48896,11.76126 37.2785,11.76126 13.78954,0 26.69434,-4.29589 37.2785,-11.76126 11.46475,-8.08662 22.08293,-22.61493 22.08293,-38.36749 0,-1.00817 -0.10489,-3.64016 -0.65387,-6.30361 -0.47758,-2.31777 -1.62482,-5.08424 -2.71791,-6.28263 -4.80047,-5.26269 -8.80333,-14.26465 -11.66859,-23.29517 -3.39029,-10.68524 -4.77049,-23.56546 -4.77049,-32.70877 0,-9.14334 1.3802,-22.02354 4.77049,-32.70879 z"
       style="fill:none;fill-rule:evenodd;stroke:#000000;stroke-width:1.80000007;stroke-linecap:butt;stroke-linejoin:miter;stroke-miterlimit:4;stroke-dasharray:none;stroke-opacity:1"
       id="RotorRight" />
    <path
       inkscape:connector-curvature="0"
       id="BlowerHousing"
       d="M 84.41112,1009.6464 A 120.62758,120.62758 0 0 0 205.04003,1130.2733 120.62758,120.62758 0 0 0 325.667,1009.6464 120.62758,120.62758 0 0 0 295.1103,929.6327 120.62759,120.62759 0 0 0 325.667,849.57215 120.62759,120.62759 0 0 0 205.04003,728.9452 120.62759,120.62759 0 0 0 84.41112,849.57215 a 120.62759,120.62759 0 0 0 30.55664,80.01367 120.62758,120.62758 0 0 0 -30.55664,80.06058 z"
       style="opacity:1;fill:none;fill-opacity:1;fill-rule:nonzero;stroke:#ff0000;stroke-width:1.80000007;stroke-miterlimit:4;stroke-dasharray:none;stroke-dashoffset:0;stroke-opacity:1" />
  </g>
</svg>
