<?xml version="1.0" encoding="UTF-8" standalone="no"?>
<!-- Created with Inkscape (http://www.inkscape.org/) -->

<svg
   xmlns:dc="http://purl.org/dc/elements/1.1/"
   xmlns:cc="http://creativecommons.org/ns#"
   xmlns:rdf="http://www.w3.org/1999/02/22-rdf-syntax-ns#"
   xmlns:svg="http://www.w3.org/2000/svg"
   xmlns="http://www.w3.org/2000/svg"
   xmlns:sodipodi="http://sodipodi.sourceforge.net/DTD/sodipodi-0.dtd"
   xmlns:inkscape="http://www.inkscape.org/namespaces/inkscape"
   width="357.02594"
   height="413.12811"
   id="svg2"
   version="1.1"
   inkscape:version="0.91 r13725"
   sodipodi:docname="Cycloidal_rotor_construction_-_2_lobes.svg">
  <metadata
     id="metadata7">
    <rdf:RDF>
      <cc:Work
         rdf:about="">
        <dc:format>image/svg+xml</dc:format>
        <dc:type
           rdf:resource="http://purl.org/dc/dcmitype/StillImage" />
        <dc:title></dc:title>
      </cc:Work>
    </rdf:RDF>
  </metadata>
  <g
     inkscape:label="Layer 1"
     inkscape:groupmode="layer"
     id="layer1"
     transform="translate(-26.526095,-723.0452)">
    <path
      style="fill:#00FF00;stroke:none"
      d="m 324.91649,849.57214 c 0,66.20629 -53.6708,119.87709 -119.87709,119.87709 l 0,-239.75418 c 66.20629,0 119.87709,53.6708 119.87709,119.87709"
      id="RotorTopRightHemi" >
      <animateTransform
        attributeName="transform"
        attributeType="XML"
        type="rotate"
        from="0 205 850"
        to="360 205 850"
        dur="40s"
        repeatCount="indefinite"/>
    </path>
    <path
      style="fill:#0000FF;stroke:none"
      d="m 205.0394,969.44923 c -66.20629,0 -119.877092,-53.6708 -119.877092,-119.87709 0,-66.20629 53.670802,-119.87709 119.877092,-119.87709 z"
      id="RotorTopLeftHemi" >
      <animateTransform
        attributeName="transform"
        attributeType="XML"
        type="rotate"
        from="0 205 850"
        to="360 205 850"
        dur="40s"
        repeatCount="indefinite"/>
    </path>
    <path
      style="fill:#00FF00;stroke:none"
      d="m 85.315208,1009.6465 c -1.1e-5,-66.12179 53.602292,-119.7241 119.724082,-119.7241 66.12179,0 119.72409,53.60231 119.72408,119.7241 z"
      id="RotorBottomTopHemi" >
      <animateTransform
        attributeName="transform"
        attributeType="XML"
        type="rotate"
        from="0 205 1010"
        to="-360 205 1010"
        dur="40s"
        repeatCount="indefinite"/>
    </path>
    <path
      style="fill:#0000FF;stroke:none"
      d="m 324.76337,1009.6465 c 10e-6,66.1218 -53.60229,119.7241 -119.72408,119.7241 -66.12179,0 -119.724093,-53.6023 -119.724082,-119.7241 z"
      id="RotorBottomBottomHemi" >
      <animateTransform
        attributeName="transform"
        attributeType="XML"
        type="rotate"
        from="0 205 1010"
        to="-360 205 1010"
        dur="40s"
        repeatCount="indefinite"/>
    </path>
    <path
      style="fill:#FFFFFF;stroke:#000000;stroke-width:1.8"
      d="m 249.36042,816.86331 c 2.86526,-9.03051 6.86812,-18.03256 11.66859,-23.29506 1.09309,-1.19837 2.24033,-3.96478 2.71791,-6.28259 0.54898,-2.66351 0.65387,-5.2954 0.65387,-6.30361 0,-15.75262 -10.61818,-30.28088 -22.08293,-38.36746 -10.58416,-7.46549 -23.48896,-11.76132 -37.2785,-11.76132 -13.78954,0 -26.69434,4.29583 -37.2785,11.76132 -11.46469,8.08658 -22.08285,22.61484 -22.08285,38.36746 0,1.00821 0.10488,3.6401 0.65375,6.30361 0.47767,2.31781 1.62486,5.08422 2.71802,6.28259 4.80041,5.2625 8.80324,14.26455 11.66852,23.29506 3.39029,10.68525 4.72939,23.56545 4.72939,32.70879 0,9.14331 -1.3391,22.02353 -4.72939,32.70877 -2.86528,9.03052 -6.86811,18.03248 -11.66852,23.29517 -1.09316,1.19839 -2.24035,3.96486 -2.71802,6.28263 -0.54893,2.66345 -0.65375,5.29544 -0.65375,6.30361 0,15.75256 10.61816,30.28087 22.08285,38.36749 10.58416,7.46537 23.48896,11.76126 37.2785,11.76126 13.78954,0 26.69434,-4.29589 37.2785,-11.76126 11.46475,-8.08662 22.08293,-22.61493 22.08293,-38.36749 0,-1.00817 -0.10489,-3.64016 -0.65387,-6.30361 -0.47758,-2.31777 -1.62482,-5.08424 -2.71791,-6.28263 -4.80047,-5.26269 -8.80333,-14.26465 -11.66859,-23.29517 -3.39029,-10.68524 -4.77049,-23.56546 -4.77049,-32.70877 0,-9.14334 1.3802,-22.02354 4.77049,-32.70879 z"
      id="RotorTop" >
      <animateTransform
        attributeName="transform"
        attributeType="XML"
        type="rotate"
        from="0 205 850"
        to="360 205 850"
        dur="40s"
        repeatCount="indefinite"/>
    </path>
    <path
       style="fill:none;stroke:#000000;stroke-width:1.8"
       d="m 212.05885,849.5721 a 7.019443,7.019443 0 0 1 -7.01945,7.0195 7.019443,7.019443 0 0 1 -7.01945,-7.0195 7.019443,7.019443 0 0 1 7.01945,-7.0194 7.019443,7.019443 0 0 1 7.01945,7.0194 z"
       id="RotorCenterTop" />
    <path
      style="fill:#FFFFFF;stroke:#000000;stroke-width:1.8"
      d="m 172.33052,965.32537 c -9.03051,-2.86526 -18.03256,-6.86811 -23.29505,-11.66852 -1.19837,-1.09315 -3.96478,-2.24034 -6.28259,-2.71802 -2.66351,-0.54887 -5.2954,-0.65375 -6.30361,-0.65375 -15.75262,0 -30.28089,10.61817 -38.36746,22.08285 -7.46549,10.58416 -11.76132,23.48897 -11.76132,37.27847 0,13.7896 4.29583,26.6944 11.76132,37.2785 8.08657,11.4647 22.61484,22.0829 38.36746,22.0829 1.00821,0 3.6401,-0.1048 6.30361,-0.6537 2.31781,-0.4777 5.08422,-1.6249 6.28259,-2.7181 5.26249,-4.8004 14.26454,-8.8032 23.29505,-11.6685 10.68525,-3.3903 23.56544,-4.7294 32.70878,-4.7294 9.14333,0 22.02353,1.3391 32.70878,4.7294 9.03051,2.8653 18.03248,6.8681 23.29501,11.6685 1.1984,1.0932 3.96487,2.2404 6.28264,2.7181 2.66345,0.5489 5.29544,0.6537 6.30361,0.6537 15.75256,0 30.28086,-10.6182 38.36746,-22.0829 7.4654,-10.5841 11.7613,-23.4889 11.7613,-37.2785 0,-13.7895 -4.2959,-26.69431 -11.7613,-37.27847 -8.0866,-11.46468 -22.6149,-22.08285 -38.36746,-22.08285 -1.00817,0 -3.64016,0.10488 -6.30361,0.65375 -2.31777,0.47768 -5.08424,1.62487 -6.28264,2.71802 -5.26253,4.80041 -14.2645,8.80326 -23.29501,11.66852 -10.68525,3.39029 -23.56545,4.7705 -32.70878,4.7705 -9.14332,0 -22.02353,-1.38021 -32.70878,-4.7705 z"
      id="RotorBottom" >
      <animateTransform
        attributeName="transform"
        attributeType="XML"
        type="rotate"
        from="0 205 1010"
        to="-360 205 1010"
        dur="40s"
        repeatCount="indefinite"/>
    </path>
    <path
       style="fill:none;stroke:#000000;stroke-width:1.8"
       d="m 212.05874,1009.6464 a 7.019443,7.019443 0 0 1 -7.01945,7.0195 7.019443,7.019443 0 0 1 -7.01944,-7.0195 7.019443,7.019443 0 0 1 7.01944,-7.0194 7.019443,7.019443 0 0 1 7.01945,7.0194 z"
       id="RotorCenterBottom" />
    <path
       style="fill:none;stroke:#FF0000;stroke-width:1.8"
       d="M 178.51367 5.9003906 A 120.62759 120.62759 0 0 0 57.884766 126.52734 A 120.62759 120.62759 0 0 0 79.042969 194.53711 L 9.8339844 194.53711 L 9.8339844 218.5918 L 79.148438 218.5918 A 120.62758 120.62758 0 0 0 57.884766 286.60156 A 120.62758 120.62758 0 0 0 178.51367 407.22852 A 120.62758 120.62758 0 0 0 299.14062 286.60156 A 120.62758 120.62758 0 0 0 277.98438 218.5918 L 347.19141 218.5918 L 347.19141 194.53711 L 277.87695 194.53711 A 120.62759 120.62759 0 0 0 299.14062 126.52734 A 120.62759 120.62759 0 0 0 178.51367 5.9003906 z "
       transform="translate(26.526095,723.0452)"
       id="BlowerHousing" />
  </g>
</svg>
