<?xml version="1.0" encoding="UTF-8" standalone="no"?>
<!-- Created with Inkscape (http://www.inkscape.org/) -->

<svg
   xmlns:dc="http://purl.org/dc/elements/1.1/"
   xmlns:cc="http://creativecommons.org/ns#"
   xmlns:rdf="http://www.w3.org/1999/02/22-rdf-syntax-ns#"
   xmlns:svg="http://www.w3.org/2000/svg"
   xmlns="http://www.w3.org/2000/svg"
   xmlns:sodipodi="http://sodipodi.sourceforge.net/DTD/sodipodi-0.dtd"
   xmlns:inkscape="http://www.inkscape.org/namespaces/inkscape"
   width="82.658974mm"
   height="117.49377mm"
   viewBox="0 0 292.88611 416.3165"
   id="svg2"
   version="1.1"
   inkscape:version="0.91 r13725"
   sodipodi:docname="ThreeLobeBlower.svg">
  <defs
     id="defs12" />
  <metadata
     id="metadata7">
    <rdf:RDF>
      <cc:Work
         rdf:about="">
        <dc:format>image/svg+xml</dc:format>
        <dc:type
           rdf:resource="http://purl.org/dc/dcmitype/StillImage" />
        <dc:title />
      </cc:Work>
    </rdf:RDF>
  </metadata>
  <g id="layer1" transform="translate(-13.111074,-262.77541)" />
  <path
     id="RotorBottom"
     style="fill:none;stroke:#000000;stroke-width:1.5"
     d="m 219.29268,369.59588 c -4.22958,1.56789 -8.80865,2.35785 -13.31935,2.39242 -3.44863,0.0264 -6.96188,-0.51387 -10.21005,-1.67277 -1.90405,-0.67934 -5.83739,-2.52277 -7.25076,-4.9708 -1.64731,-2.85321 -6.29233,-6.38552 -10.45816,-8.73855 -9.34061,-5.27597 -19.74452,-8.04539 -31.20166,-8.04539 -11.45714,0 -22.68035,2.76942 -32.02096,8.04539 -4.16583,2.35303 -8.81085,5.88534 -10.45815,8.73855 -1.41337,2.44803 -5.346719,4.29146 -7.250759,4.97079 -3.24817,1.15891 -6.761425,1.69921 -10.210045,1.67278 -4.5107,-0.0346 -9.08977,-0.82453 -13.31935,-2.39242 -10.97533,-4.0685 -18.86108,-11.24468 -24.45722,-20.93747 -5.59613,-9.69279 -7.86802,-20.11015 -5.90377,-31.64931 0.75696,-4.44687 2.36237,-8.80743 4.58778,-12.7311 1.70142,-2.99981 3.92596,-5.77223 6.55369,-8.00578 1.54035,-1.30928 5.10348,-3.79394 7.93021,-3.79395 3.29461,0 8.67619,-2.25654 12.79689,-4.68775 9.23943,-5.45122 16.83977,-13.07656 22.568335,-22.99874 5.728569,-9.92217 8.941789,-21.02646 9.042969,-31.75365 0.0451,-4.78423 -0.69143,-10.57309 -2.33873,-13.4263 -1.41337,-2.44803 -1.04315,-6.77612 -0.67946,-8.76473 0.62045,-3.39246 1.90916,-6.70518 3.65637,-9.67856 2.28529,-3.8891 5.25894,-7.4597 8.73156,-10.33869 9.01109,-7.47067 19.16873,-10.71183 30.36099,-10.71183 11.19227,0 21.34991,3.24116 30.361,10.71183 3.47262,2.87899 6.44627,6.44959 8.73156,10.33869 1.74721,2.97338 3.03592,6.2861 3.65636,9.67856 0.3637,1.98861 0.73392,6.3167 -0.67945,8.76473 -1.6473,2.85321 -2.38386,8.64207 -2.33873,13.4263 0.10118,10.72719 2.90475,21.12195 8.63332,31.04413 5.72857,9.92218 13.73856,18.25704 22.97799,23.70827 4.1207,2.4312 9.50228,4.68775 12.79688,4.68775 2.82674,0 6.38987,2.48466 7.93021,3.79394 2.62773,2.23355 4.85228,5.00597 6.5537,8.00578 2.2254,3.92367 3.83081,8.28423 4.58778,12.7311 1.96424,11.53916 -0.30764,21.95652 -5.90378,31.64931 -5.59613,9.69279 -13.48188,16.86897 -24.45721,20.93747 z" >
    <animateTransform
       attributeName="transform"
       attributeType="XML"
       type="rotate"
       from="360 146.44307 292.47827"
       to="0 146.44307 292.47827"
       dur="10s"
       repeatCount="indefinite" />
  </path>
  <path
     id="RotorTop"
     style="fill:none;stroke:#000000;stroke-width:1.5"
     d="m 219.29268,200.95536 c -4.22958,1.56789 -8.80865,2.35784 -13.31935,2.39242 -3.44863,0.0264 -6.96188,-0.51387 -10.21005,-1.67278 -1.90405,-0.67934 -5.83739,-2.52277 -7.25076,-4.97079 -1.64731,-2.85322 -6.29233,-6.38552 -10.45816,-8.73856 -9.34061,-5.27596 -19.74452,-8.04538 -31.20166,-8.04538 -11.45714,0 -22.68035,2.76942 -32.02096,8.04538 -4.16583,2.35303 -8.81085,5.88534 -10.45815,8.73855 -1.41337,2.44803 -5.346719,4.29146 -7.250759,4.97079 -3.24817,1.15891 -6.761425,1.69922 -10.210045,1.67278 -4.5107,-0.0346 -9.08977,-0.82453 -13.31935,-2.39241 -10.97533,-4.0685 -18.86108,-11.24469 -24.45722,-20.93748 -5.59613,-9.69279 -7.86802,-20.11014 -5.90377,-31.6493 0.75696,-4.44687 2.36237,-8.80743 4.58778,-12.73111 1.70142,-2.99981 3.92596,-5.77222 6.55369,-8.00578 1.54035,-1.30928 5.10348,-3.79394 7.93021,-3.79394 3.29461,0 8.67619,-2.25655 12.79689,-4.68775 9.23943,-5.45123 16.83977,-13.07657 22.568335,-22.998754 5.728569,-9.922167 8.941789,-21.026457 9.042969,-31.753647 0.0451,-4.78423 -0.69143,-10.57309 -2.33873,-13.4263 -1.41337,-2.44803 -1.04315,-6.77612 -0.67946,-8.76474 0.62045,-3.39245 1.90916,-6.70518 3.65637,-9.67856 2.28529,-3.88909 5.25894,-7.45969 8.73156,-10.33868 9.01109,-7.47067 19.16873,-10.71183 30.36099,-10.71183 11.19227,0 21.34991,3.24116 30.361,10.71183 3.47262,2.87899 6.44627,6.44959 8.73156,10.33869 1.74721,2.97338 3.03592,6.2861 3.65636,9.67855 0.3637,1.98862 0.73392,6.31671 -0.67945,8.76474 -1.6473,2.85321 -2.38386,8.64207 -2.33873,13.4263 0.10118,10.72719 2.90475,21.12195 8.63332,31.044127 5.72857,9.922184 13.73856,18.257044 22.97799,23.708274 4.1207,2.4312 9.50228,4.68775 12.79688,4.68775 2.82674,0 6.38987,2.48466 7.93021,3.79394 2.62773,2.23356 4.85228,5.00597 6.5537,8.00579 2.2254,3.92367 3.83081,8.28423 4.58778,12.7311 1.96424,11.53916 -0.30764,21.95651 -5.90378,31.6493 -5.59613,9.6928 -13.48188,16.86898 -24.45721,20.93748 z" >
    <animateTransform
       attributeName="transform"
       attributeType="XML"
       type="rotate"
       from="0 146.44305 123.83775"
       to="360 146.44305 123.83775"
       dur="10s"
       repeatCount="indefinite" />
  </path>
  <path
     style="fill:none;stroke:#ff0000;stroke-width:1.5"
     d="m 10.629906,222.10866 47.95397,0 c -16.06068,19.94539 -24.85689,44.76193 -24.94247,70.36968 -1.7e-4,62.29892 50.50312,112.80221 112.802024,112.80204 62.29861,-2.7e-4 112.80142,-50.50343 112.80125,-112.80204 -0.0707,-25.60144 -8.84824,-50.41731 -24.89012,-70.36968 l 47.90162,0 m 0,-27.90162 -47.95318,0 c 16.0604,-19.94549 24.85632,-44.76203 24.94168,-70.36968 C 259.24441,61.539059 208.74173,11.036379 146.44343,11.036109 84.144836,11.035939 33.641676,61.538749 33.641406,123.83736 c 0.0707,25.60144 8.84823,50.41731 24.89011,70.36968 l -47.90161,0"
     id="Housing" />
  <circle
     style="fill:none;stroke:#000000;stroke-width:1.5"
     id="RotorCenterTop"
     cx="146.44305"
     cy="123.83775"
     r="6.6730876" />
  <circle
     style="fill:none;stroke:#000000;stroke-width:1.5"
     id="RotorCenterBottom"
     cx="146.44307"
     cy="292.47827"
     r="6.6730876" />
</svg>
