<?xml version="1.0" encoding="UTF-8" standalone="no"?>
<!-- Created with Inkscape (http://www.inkscape.org/) -->

<svg
   xmlns:dc="http://purl.org/dc/elements/1.1/"
   xmlns:cc="http://creativecommons.org/ns#"
   xmlns:rdf="http://www.w3.org/1999/02/22-rdf-syntax-ns#"
   xmlns:svg="http://www.w3.org/2000/svg"
   xmlns="http://www.w3.org/2000/svg"
   xmlns:sodipodi="http://sodipodi.sourceforge.net/DTD/sodipodi-0.dtd"
   xmlns:inkscape="http://www.inkscape.org/namespaces/inkscape"
   width="198.72784mm"
   height="284.2059mm"
   viewBox="0 0 704.15375 1007.0288"
   id="svg2"
   version="1.1"
   inkscape:version="0.91 r13725"
   sodipodi:docname="ThreeLobeBlower.svg">
  <defs
     id="defs4" />
  <sodipodi:namedview
     id="base"
     pagecolor="#ffffff"
     bordercolor="#666666"
     borderopacity="1.0"
     inkscape:pageopacity="0.0"
     inkscape:pageshadow="2"
     inkscape:zoom="0.49497475"
     inkscape:cx="309.84222"
     inkscape:cy="476.79687"
     inkscape:document-units="px"
     inkscape:current-layer="svg2"
     showgrid="false"
     inkscape:snap-smooth-nodes="false"
     inkscape:snap-center="true"
     inkscape:window-width="1598"
     inkscape:window-height="868"
     inkscape:window-x="0"
     inkscape:window-y="0"
     inkscape:window-maximized="0"
     fit-margin-top="5"
     fit-margin-left="5"
     fit-margin-right="5"
     fit-margin-bottom="5" />
  <metadata
     id="metadata7">
    <rdf:RDF>
      <cc:Work
         rdf:about="">
        <dc:format>image/svg+xml</dc:format>
        <dc:type
           rdf:resource="http://purl.org/dc/dcmitype/StillImage" />
        <dc:title></dc:title>
      </cc:Work>
    </rdf:RDF>
  </metadata>
  <g
     inkscape:label="Layer 1"
     inkscape:groupmode="layer"
     id="layer1"
     transform="translate(192.52274,32.580735)" />
  <path
     id="path4518-4-5-0"
     style="fill:none;fill-rule:evenodd;stroke:#000000;stroke-width:1px;stroke-linecap:butt;stroke-linejoin:miter;stroke-opacity:1"
     d="m 531.42645,900.96008 c -10.41287,3.86 -21.68613,5.80481 -32.7911,5.88993 -8.49022,0.0651 -17.13955,-1.26511 -25.13628,-4.11823 -4.68759,-1.67248 -14.37115,-6.21084 -17.85075,-12.23767 -4.05552,-7.02437 -15.49116,-15.72061 -25.74708,-21.51358 -22.99579,-12.98897 -48.60932,-19.80705 -76.81584,-19.80705 -28.2065,0 -55.83707,6.81808 -78.83285,19.80705 -10.25593,5.79296 -21.69157,14.48921 -25.74709,21.51357 -3.47959,6.02683 -13.16315,10.5652 -17.85073,12.23766 -7.99674,2.85313 -16.64607,4.18332 -25.13629,4.11824 -11.10496,-0.0851 -22.37822,-2.02993 -32.79109,-5.88993 -27.02033,-10.01629 -46.43438,-27.68345 -60.21158,-51.54627 -13.777205,-23.86282 -19.370395,-49.50946 -14.534595,-77.91789 1.86358,-10.94781 5.815955,-21.68314 11.294725,-31.34289 4.18875,-7.38528 9.66539,-14.21073 16.13463,-19.70954 3.7922,-3.22333 12.56432,-9.34036 19.52351,-9.34037 8.11104,0 21.36002,-5.55543 31.50484,-11.54084 22.74668,-13.42045 41.45807,-32.19338 55.56133,-56.62094 14.10325,-24.42755 22.01391,-51.76536 22.26302,-78.17477 0.11111,-11.77838 -1.70224,-26.03006 -5.75776,-33.05442 -3.47959,-6.02683 -2.56815,-16.68223 -1.67276,-21.57802 1.52749,-8.35194 4.70018,-16.50758 9.00165,-23.82779 5.6262,-9.57461 12.94708,-18.36514 21.49637,-25.45295 22.18453,-18.39215 47.19176,-26.37163 74.74617,-26.37162 27.55441,0 52.56165,7.97947 74.74617,26.37162 8.54929,7.08781 15.87017,15.87834 21.49637,25.45296 4.30147,7.32021 7.47416,15.47584 9.00165,23.82778 0.89539,4.8958 1.80683,15.55119 -1.67276,21.57803 -4.05552,7.02436 -5.86887,21.27603 -5.75776,33.05441 0.24911,26.40942 7.15125,52.00043 21.25451,76.42799 14.10325,24.42755 33.82316,44.94728 56.56983,58.36773 10.14482,5.98541 23.39381,11.54084 31.50484,11.54084 6.95919,0 15.73131,6.11703 19.5235,9.34036 6.46925,5.49881 11.94589,12.32426 16.13464,19.70955 5.47876,9.65974 9.43114,20.39507 11.29472,31.34288 4.83581,28.40843 -0.75738,54.05507 -14.53459,77.91789 -13.7772,23.86283 -33.19125,41.52998 -60.21157,51.54628 z"
     inkscape:connector-curvature="0"
     sodipodi:nodetypes="sssssssssssssssssssssssssssssssssssss"
     inkscape:transform-center-y="-40.436095" />
  <path
     id="path4518-4-5-0-1"
     style="fill:none;fill-rule:evenodd;stroke:#000000;stroke-width:1px;stroke-linecap:butt;stroke-linejoin:miter;stroke-opacity:1"
     d="m 531.42645,485.78151 c -10.41287,3.86 -21.68613,5.80481 -32.7911,5.88993 -8.49022,0.0651 -17.13955,-1.26511 -25.13628,-4.11823 -4.68759,-1.67248 -14.37115,-6.21084 -17.85075,-12.23767 -4.05552,-7.02437 -15.49116,-15.72061 -25.74708,-21.51358 -22.99579,-12.98897 -48.60932,-19.80705 -76.81584,-19.80705 -28.2065,0 -55.83707,6.81808 -78.83285,19.80705 -10.25593,5.79296 -21.69157,14.48921 -25.74709,21.51357 -3.47959,6.02683 -13.16315,10.5652 -17.85073,12.23766 -7.99674,2.85313 -16.64607,4.18332 -25.13629,4.11824 -11.10496,-0.0851 -22.37822,-2.02993 -32.79109,-5.88993 -27.02033,-10.01629 -46.43438,-27.68345 -60.21158,-51.54627 -13.777205,-23.86282 -19.370395,-49.50946 -14.534595,-77.91789 1.86358,-10.94781 5.815955,-21.68314 11.294725,-31.34289 4.18875,-7.38528 9.66539,-14.21073 16.13463,-19.70955 3.7922,-3.22333 12.56432,-9.34036 19.52351,-9.34037 8.11104,0 21.36002,-5.55543 31.50484,-11.54084 22.74668,-13.42045 41.45807,-32.19338 55.56133,-56.62094 14.10325,-24.42755 22.01391,-51.76536 22.26302,-78.17477 0.11111,-11.77838 -1.70224,-26.03006 -5.75776,-33.05442 -3.47959,-6.02683 -2.56815,-16.682235 -1.67276,-21.578025 1.52749,-8.35194 4.70018,-16.50758 9.00165,-23.82779 5.6262,-9.57461 12.94708,-18.36514 21.49637,-25.45295 22.18453,-18.39215 47.19176,-26.37162 74.74617,-26.37162 27.55441,0 52.56165,7.97947 74.74617,26.37162 8.54929,7.08781 15.87017,15.87834 21.49637,25.45296 4.30147,7.32021 7.47416,15.47584 9.00165,23.82778 0.89539,4.8958 1.80683,15.551195 -1.67276,21.578035 -4.05552,7.02436 -5.86887,21.27603 -5.75776,33.05441 0.24911,26.40942 7.15125,52.00043 21.25451,76.42799 14.10325,24.42755 33.82316,44.94728 56.56983,58.36773 10.14482,5.98541 23.39381,11.54084 31.50484,11.54084 6.95919,0 15.73131,6.11703 19.5235,9.34036 6.46925,5.49882 11.94589,12.32427 16.13464,19.70956 5.47876,9.65974 9.43114,20.39507 11.29472,31.34288 4.83581,28.40843 -0.75738,54.05507 -14.53459,77.91789 -13.7772,23.86283 -33.19125,41.52998 -60.21157,51.54628 z"
     inkscape:connector-curvature="0"
     sodipodi:nodetypes="sssssssssssssssssssssssssssssssssssss"
     inkscape:transform-center-y="-40.436097" />
  <path
     style="color:#000000;clip-rule:nonzero;display:inline;overflow:visible;visibility:visible;opacity:1;isolation:auto;mix-blend-mode:normal;color-interpolation:sRGB;color-interpolation-filters:linearRGB;solid-color:#000000;solid-opacity:1;fill:none;fill-opacity:1;fill-rule:nonzero;stroke:#ff0000;stroke-width:1;stroke-linecap:butt;stroke-linejoin:miter;stroke-miterlimit:4;stroke-dasharray:none;stroke-dashoffset:0;stroke-opacity:1;color-rendering:auto;image-rendering:auto;shape-rendering:auto;text-rendering:auto;enable-background:accumulate"
     d="m 17.716505,537.85913 118.058595,0 C 96.235065,586.96297 74.579555,648.05918 74.368855,711.10327 74.368435,864.47788 198.70322,988.81267 352.07783,988.81225 505.45168,988.81159 629.78528,864.47712 629.78486,711.10327 629.61071,648.0747 608.00126,586.98016 568.50752,537.85913 l 117.92969,0 m 0,-68.69141 -118.05664,0 C 607.91991,420.06362 629.57471,358.96744 629.78486,295.92357 629.78421,142.55048 505.45092,18.217195 352.07783,18.216535 198.70398,18.216115 74.369515,142.54972 74.368855,295.92357 c 0.17415,63.02858 21.7836,124.12312 61.277335,173.24415 l -117.929685,0"
     id="MainCircle-6-2"
     inkscape:connector-curvature="0"
     sodipodi:nodetypes="cccsccccccsccc" />
  <circle
     style="color:#000000;clip-rule:nonzero;display:inline;overflow:visible;visibility:visible;opacity:1;isolation:auto;mix-blend-mode:normal;color-interpolation:sRGB;color-interpolation-filters:linearRGB;solid-color:#000000;solid-opacity:1;fill:none;fill-opacity:1;fill-rule:nonzero;stroke:#000000;stroke-width:1;stroke-linecap:butt;stroke-linejoin:miter;stroke-miterlimit:4;stroke-dasharray:none;stroke-dashoffset:0;stroke-opacity:1;color-rendering:auto;image-rendering:auto;shape-rendering:auto;text-rendering:auto;enable-background:accumulate"
     id="path4673"
     cx="295.92456"
     cy="-352.0769"
     r="16.428572"
     transform="matrix(0,1,-1,0,0,0)" />
  <circle
     style="color:#000000;clip-rule:nonzero;display:inline;overflow:visible;visibility:visible;opacity:1;isolation:auto;mix-blend-mode:normal;color-interpolation:sRGB;color-interpolation-filters:linearRGB;solid-color:#000000;solid-opacity:1;fill:none;fill-opacity:1;fill-rule:nonzero;stroke:#000000;stroke-width:1;stroke-linecap:butt;stroke-linejoin:miter;stroke-miterlimit:4;stroke-dasharray:none;stroke-dashoffset:0;stroke-opacity:1;color-rendering:auto;image-rendering:auto;shape-rendering:auto;text-rendering:auto;enable-background:accumulate"
     id="path4673-6"
     cx="711.10309"
     cy="-352.0769"
     r="16.428572"
     transform="matrix(0,1,-1,0,0,0)" />
</svg>
